<mxfile host="drawio-plugin" modified="2021-10-31T13:10:02.395Z" agent="5.0 (Windows NT 6.2; Win64; x64) AppleWebKit/537.36 (KHTML, like Gecko) Chrome/84.0.4147.105 Safari/537.36" etag="zigE9wAr-Oq-dYXwWUFq" version="14.7.4" type="embed"><diagram id="23iRSUPoRavnBvh4doch" name="Page-1"><mxGraphModel dx="1289" dy="430" grid="1" gridSize="10" guides="1" tooltips="1" connect="1" arrows="1" fold="1" page="1" pageScale="1" pageWidth="827" pageHeight="1169" math="0" shadow="0"><root><mxCell id="0"/><mxCell id="1" parent="0"/><mxCell id="2" value="stays" style="rounded=0;whiteSpace=wrap;html=1;fillColor=#e1d5e7;strokeColor=#9673a6;" parent="1" vertex="1"><mxGeometry x="240" y="90" width="120" height="60" as="geometry"/></mxCell><mxCell id="4" value="log in" style="rounded=0;whiteSpace=wrap;html=1;fillColor=#dae8fc;strokeColor=#6c8ebf;" parent="1" vertex="1"><mxGeometry x="470" y="90" width="120" height="60" as="geometry"/></mxCell><mxCell id="5" value="register" style="rounded=0;whiteSpace=wrap;html=1;fillColor=#d5e8d4;strokeColor=#82b366;" parent="1" vertex="1"><mxGeometry x="680" y="90" width="120" height="60" as="geometry"/></mxCell><mxCell id="7" value="nav bar" style="rounded=0;whiteSpace=wrap;html=1;fillColor=#f5f5f5;strokeColor=#666666;fontColor=#333333;" parent="1" vertex="1"><mxGeometry x="40" y="20" width="770" height="60" as="geometry"/></mxCell><mxCell id="10" value="content" style="whiteSpace=wrap;html=1;aspect=fixed;fillColor=#f5f5f5;strokeColor=#666666;fontColor=#333333;" parent="1" vertex="1"><mxGeometry x="60" y="180" width="670" height="670" as="geometry"/></mxCell><mxCell id="13" value="Where to go?" style="rounded=0;whiteSpace=wrap;html=1;" parent="1" vertex="1"><mxGeometry x="100" y="230" width="120" height="60" as="geometry"/></mxCell><mxCell id="14" value="Check in" style="rounded=0;whiteSpace=wrap;html=1;" parent="1" vertex="1"><mxGeometry x="270" y="230" width="120" height="60" as="geometry"/></mxCell><mxCell id="15" value="Check out" style="rounded=0;whiteSpace=wrap;html=1;" parent="1" vertex="1"><mxGeometry x="430" y="230" width="120" height="60" as="geometry"/></mxCell><mxCell id="16" value="Search" style="rounded=0;whiteSpace=wrap;html=1;" parent="1" vertex="1"><mxGeometry x="570" y="230" width="120" height="60" as="geometry"/></mxCell><mxCell id="17" value="home" style="rounded=0;whiteSpace=wrap;html=1;fillColor=#ffe6cc;strokeColor=#d79b00;" parent="1" vertex="1"><mxGeometry x="40" y="90" width="120" height="60" as="geometry"/></mxCell></root></mxGraphModel></diagram></mxfile>